<mxfile host="Electron" modified="2023-08-14T21:09:29.635Z" agent="Mozilla/5.0 (Macintosh; Intel Mac OS X 10_15_7) AppleWebKit/537.36 (KHTML, like Gecko) draw.io/21.6.8 Chrome/114.0.5735.289 Electron/25.5.0 Safari/537.36" etag="k7Mzsd6UpdN_KydEov2X" version="21.6.8" type="device">
  <diagram name="Page-1" id="lmK9xl6nnelpAUo2GgPa">
    <mxGraphModel dx="954" dy="674" grid="1" gridSize="10" guides="1" tooltips="1" connect="1" arrows="1" fold="1" page="0" pageScale="1" pageWidth="850" pageHeight="1100" math="0" shadow="0">
      <root>
        <mxCell id="0" />
        <mxCell id="1" parent="0" />
        <mxCell id="bD66hT9DBF5Ns9ag_0Qz-1" value="&lt;br&gt;&lt;div style=&quot;background-color: rgb(255, 255, 255); font-family: Menlo, Monaco, &amp;quot;Courier New&amp;quot;, monospace; font-size: 12px; line-height: 18px;&quot;&gt;&lt;b&gt;&lt;i&gt;make_joined_report_mne()&lt;/i&gt;&lt;/b&gt;&lt;/div&gt;&lt;div style=&quot;background-color: rgb(255, 255, 255); font-family: Menlo, Monaco, &amp;quot;Courier New&amp;quot;, monospace; font-size: 12px; line-height: 18px;&quot;&gt;&lt;b&gt;&lt;i&gt;in universal_html_report module&lt;/i&gt;&lt;/b&gt;&lt;/div&gt;" style="text;html=1;align=center;verticalAlign=middle;resizable=0;points=[];autosize=1;strokeColor=none;fillColor=none;fontSize=18;" parent="1" vertex="1">
          <mxGeometry x="310" y="40" width="250" height="70" as="geometry" />
        </mxCell>
        <mxCell id="bD66hT9DBF5Ns9ag_0Qz-12" value="" style="edgeStyle=orthogonalEdgeStyle;rounded=0;orthogonalLoop=1;jettySize=auto;html=1;fontSize=18;fontColor=#000000;" parent="1" source="bD66hT9DBF5Ns9ag_0Qz-3" target="bD66hT9DBF5Ns9ag_0Qz-8" edge="1">
          <mxGeometry relative="1" as="geometry" />
        </mxCell>
        <mxCell id="bD66hT9DBF5Ns9ag_0Qz-3" value="Input:&lt;br&gt;&lt;br&gt;Raw data&lt;br&gt;Dict with QC derivs&lt;br&gt;Strings as notes for QC measurements" style="html=1;" parent="1" vertex="1">
          <mxGeometry y="190" width="220" height="80" as="geometry" />
        </mxCell>
        <mxCell id="bD66hT9DBF5Ns9ag_0Qz-11" value="" style="edgeStyle=orthogonalEdgeStyle;rounded=0;orthogonalLoop=1;jettySize=auto;html=1;fontSize=18;fontColor=#000000;" parent="1" source="bD66hT9DBF5Ns9ag_0Qz-4" target="bD66hT9DBF5Ns9ag_0Qz-6" edge="1">
          <mxGeometry relative="1" as="geometry" />
        </mxCell>
        <mxCell id="bD66hT9DBF5Ns9ag_0Qz-4" value="" style="ellipse;fillColor=strokeColor;fontSize=18;" parent="1" vertex="1">
          <mxGeometry x="420" y="130" width="30" height="30" as="geometry" />
        </mxCell>
        <mxCell id="bD66hT9DBF5Ns9ag_0Qz-5" value="" style="group;fontSize=18;flipH=1;" parent="1" vertex="1" connectable="0">
          <mxGeometry x="305" y="190" width="250" height="90" as="geometry" />
        </mxCell>
        <mxCell id="bD66hT9DBF5Ns9ag_0Qz-6" value="Create shell report using mne, &lt;br&gt;include raw info and time series MNE plot&lt;br&gt;&lt;br&gt;&lt;div style=&quot;background-color: rgb(255, 255, 255); font-family: Menlo, Monaco, &amp;quot;Courier New&amp;quot;, monospace; line-height: 18px;&quot;&gt;&lt;i&gt;&lt;b&gt;mne.Report()&lt;/b&gt;&lt;/i&gt;&lt;/div&gt;&lt;div style=&quot;background-color: rgb(255, 255, 255); font-family: Menlo, Monaco, &amp;quot;Courier New&amp;quot;, monospace; line-height: 18px;&quot;&gt;&lt;div style=&quot;line-height: 18px;&quot;&gt;&lt;b&gt;&lt;i&gt;report.add_raw()&lt;/i&gt;&lt;/b&gt;&lt;/div&gt;&lt;/div&gt;" style="html=1;align=center;verticalAlign=middle;rounded=1;absoluteArcSize=1;arcSize=25;dashed=0;fontFamily=Helvetica;fontSize=12;whiteSpace=wrap;container=0;noLabel=0;imageAlign=center;" parent="bD66hT9DBF5Ns9ag_0Qz-5" vertex="1">
          <mxGeometry x="10" width="240" height="80" as="geometry" />
        </mxCell>
        <mxCell id="bD66hT9DBF5Ns9ag_0Qz-7" value="pinOut 2" style="fontStyle=0;labelPosition=center;verticalLabelPosition=bottom;align=center;verticalAlign=top;spacingLeft=2;fontFamily=Helvetica;fontSize=12;resizable=0;container=0;noLabel=1;" parent="bD66hT9DBF5Ns9ag_0Qz-5" vertex="1">
          <mxGeometry x="120" y="80" width="30" height="10" as="geometry" />
        </mxCell>
        <mxCell id="bD66hT9DBF5Ns9ag_0Qz-8" value="pinOut 1" style="fontStyle=0;labelPosition=right;verticalLabelPosition=middle;align=left;verticalAlign=middle;spacingLeft=2;fontFamily=Helvetica;fontSize=12;resizable=0;container=0;noLabel=1;" parent="bD66hT9DBF5Ns9ag_0Qz-5" vertex="1">
          <mxGeometry y="25" width="10" height="30" as="geometry" />
        </mxCell>
        <mxCell id="bD66hT9DBF5Ns9ag_0Qz-31" value="" style="group;fontSize=12;fontColor=#000000;flipH=1;" parent="1" vertex="1" connectable="0">
          <mxGeometry x="320" y="490" width="250" height="90" as="geometry" />
        </mxCell>
        <mxCell id="bD66hT9DBF5Ns9ag_0Qz-32" value="Add html section strings into MNE report&lt;br style=&quot;border-color: var(--border-color);&quot;&gt;&lt;br style=&quot;border-color: var(--border-color);&quot;&gt;&lt;div style=&quot;border-color: var(--border-color); background-color: rgb(255, 255, 255); font-family: Menlo, Monaco, &amp;quot;Courier New&amp;quot;, monospace; line-height: 18px;&quot;&gt;&lt;i style=&quot;border-color: var(--border-color);&quot;&gt;&lt;b style=&quot;border-color: var(--border-color);&quot;&gt;report.add_html()&lt;/b&gt;&lt;/i&gt;&lt;/div&gt;" style="html=1;align=center;verticalAlign=middle;rounded=1;absoluteArcSize=1;arcSize=25;dashed=0;fontFamily=Helvetica;fontSize=12;whiteSpace=wrap;container=0;noLabel=0;imageAlign=center;fontColor=#000000;" parent="bD66hT9DBF5Ns9ag_0Qz-31" vertex="1">
          <mxGeometry y="10" width="240" height="80" as="geometry" />
        </mxCell>
        <mxCell id="bD66hT9DBF5Ns9ag_0Qz-33" value="pinIn 2" style="fontStyle=0;labelPosition=left;verticalLabelPosition=middle;align=right;verticalAlign=middle;spacingLeft=2;fontFamily=Helvetica;fontSize=12;flipH=0;resizable=0;container=0;noLabel=1;fontColor=#000000;" parent="bD66hT9DBF5Ns9ag_0Qz-31" vertex="1">
          <mxGeometry x="240" y="35" width="10" height="30" as="geometry" />
        </mxCell>
        <mxCell id="bD66hT9DBF5Ns9ag_0Qz-34" value="pinIn 1" style="fontStyle=0;labelPosition=center;verticalLabelPosition=top;align=center;verticalAlign=bottom;spacingLeft=2;fontFamily=Helvetica;fontSize=12;resizable=0;container=0;noLabel=1;fontColor=#000000;" parent="bD66hT9DBF5Ns9ag_0Qz-31" vertex="1">
          <mxGeometry x="105" width="30" height="10" as="geometry" />
        </mxCell>
        <mxCell id="bD66hT9DBF5Ns9ag_0Qz-35" value="" style="edgeStyle=orthogonalEdgeStyle;rounded=0;orthogonalLoop=1;jettySize=auto;html=1;fontSize=12;fontColor=#000000;" parent="1" source="bD66hT9DBF5Ns9ag_0Qz-20" target="bD66hT9DBF5Ns9ag_0Qz-34" edge="1">
          <mxGeometry relative="1" as="geometry" />
        </mxCell>
        <mxCell id="bD66hT9DBF5Ns9ag_0Qz-37" value="Ouput:&lt;br&gt;&lt;br&gt;HTML report" style="html=1;" parent="1" vertex="1">
          <mxGeometry x="650" y="500" width="220" height="80" as="geometry" />
        </mxCell>
        <mxCell id="bD66hT9DBF5Ns9ag_0Qz-38" value="" style="edgeStyle=orthogonalEdgeStyle;rounded=0;orthogonalLoop=1;jettySize=auto;html=1;fontSize=12;fontColor=#000000;" parent="1" source="bD66hT9DBF5Ns9ag_0Qz-32" target="bD66hT9DBF5Ns9ag_0Qz-37" edge="1">
          <mxGeometry relative="1" as="geometry" />
        </mxCell>
        <mxCell id="bD66hT9DBF5Ns9ag_0Qz-39" value="" style="ellipse;html=1;shape=endState;fillColor=strokeColor;fontSize=12;fontColor=#000000;" parent="1" vertex="1">
          <mxGeometry x="425" y="640" width="30" height="30" as="geometry" />
        </mxCell>
        <mxCell id="bD66hT9DBF5Ns9ag_0Qz-40" value="" style="edgeStyle=orthogonalEdgeStyle;rounded=0;orthogonalLoop=1;jettySize=auto;html=1;fontSize=12;fontColor=#000000;" parent="1" source="bD66hT9DBF5Ns9ag_0Qz-32" target="bD66hT9DBF5Ns9ag_0Qz-39" edge="1">
          <mxGeometry relative="1" as="geometry" />
        </mxCell>
        <mxCell id="bD66hT9DBF5Ns9ag_0Qz-19" value="Create html strings as section for each QC measurement with figures and notes&lt;br&gt;&lt;br&gt;&lt;div style=&quot;background-color: rgb(255, 255, 255); font-family: Menlo, Monaco, &amp;quot;Courier New&amp;quot;, monospace; line-height: 18px;&quot;&gt;&lt;div style=&quot;line-height: 18px;&quot;&gt;&lt;b&gt;&lt;i&gt;make_html_section()&lt;/i&gt;&lt;/b&gt;&lt;/div&gt;&lt;/div&gt;" style="html=1;align=center;verticalAlign=middle;rounded=1;absoluteArcSize=1;arcSize=25;dashed=0;fontFamily=Helvetica;fontSize=12;whiteSpace=wrap;container=0;noLabel=0;imageAlign=center;fontColor=#000000;" parent="1" vertex="1">
          <mxGeometry x="320" y="370" width="240" height="80" as="geometry" />
        </mxCell>
        <mxCell id="bD66hT9DBF5Ns9ag_0Qz-20" value="pinOut 2" style="fontStyle=0;labelPosition=center;verticalLabelPosition=bottom;align=center;verticalAlign=top;spacingLeft=2;fontFamily=Helvetica;fontSize=12;resizable=0;container=0;noLabel=1;fontColor=#000000;" parent="1" vertex="1">
          <mxGeometry x="425" y="450" width="30" height="10" as="geometry" />
        </mxCell>
        <mxCell id="bD66hT9DBF5Ns9ag_0Qz-21" value="pinIn 1" style="fontStyle=0;labelPosition=center;verticalLabelPosition=top;align=center;verticalAlign=bottom;spacingLeft=2;fontFamily=Helvetica;fontSize=12;resizable=0;container=0;noLabel=1;fontColor=#000000;" parent="1" vertex="1">
          <mxGeometry x="425" y="360" width="30" height="10" as="geometry" />
        </mxCell>
        <mxCell id="bD66hT9DBF5Ns9ag_0Qz-29" value="&lt;font style=&quot;font-size: 12px;&quot;&gt;Loop&lt;br&gt;[for every QC measurement]&lt;/font&gt;" style="shape=umlFrame;whiteSpace=wrap;html=1;width=170;height=45;boundedLbl=1;verticalAlign=middle;align=left;spacingLeft=5;fontSize=18;fontColor=#000000;dashed=1;" parent="1" vertex="1">
          <mxGeometry x="250" y="300" width="350" height="310" as="geometry" />
        </mxCell>
        <mxCell id="nwfgpcGCS7rwtjAJGzDY-2" style="edgeStyle=orthogonalEdgeStyle;rounded=0;orthogonalLoop=1;jettySize=auto;html=1;entryX=0.541;entryY=0.194;entryDx=0;entryDy=0;entryPerimeter=0;" parent="1" source="bD66hT9DBF5Ns9ag_0Qz-7" target="bD66hT9DBF5Ns9ag_0Qz-29" edge="1">
          <mxGeometry relative="1" as="geometry" />
        </mxCell>
      </root>
    </mxGraphModel>
  </diagram>
</mxfile>
